# xmcd
#
# Track frame offsets: 
#        187
#        17675
#        32050
#        44912
#        62275
#        79612
#        93350
#        106312
#        115937
#        129487
#        144250
#        162887
#        175637
#        190957
#        207237
#        223300
#        239962
#        256612
#        276450
#        289387
#
# Disc length: 4092 seconds
#
# Revision: 4
# Processed by: cddbd v1.4PL0 Copyright (c) Steve Scherf et al.
# Submitted via: ExactAudioCopy v0.90b4
#
DISCID=290ffa14
DTITLE=Dillard and Clark - Fantastic Expedition~Thru Morning Thru Night 
DTITLE=(MFSL)
DYEAR=1900
DGENRE=Country
TTITLE0=Out On The Side
TTITLE1=She Darked The Sun
TTITLE2=Don't Come Rollin'
TTITLE3=Train Leaves Here This Mornin'
TTITLE4=With Care From Somebody
TTITLE5=The Radio Song
TTITLE6=Git It On Brother
TTITLE7=In The Plan
TTITLE8=Something's Wrong
TTITLE9=No Longer A Sweetheart Of Mine
TTITLE10=Through The Morning, Through The Night
TTITLE11=Rocky Top
TTITLE12=So Sad
TTITLE13=Corner Street Bar
TTITLE14=I Bowed My Head And Cried Holy
TTITLE15=Kansas City Southern
TTITLE16=Four Walls
TTITLE17=Polly
TTITLE18=Rollin' In My Sweet Baby's Arms
TTITLE19=Don't Let Me Down
EXTD=
EXTT0=
EXTT1=
EXTT2=
EXTT3=
EXTT4=
EXTT5=
EXTT6=
EXTT7=
EXTT8=
EXTT9=
EXTT10=
EXTT11=
EXTT12=
EXTT13=
EXTT14=
EXTT15=
EXTT16=
EXTT17=
EXTT18=
EXTT19=
PLAYORDER=
